<?xml version="1.0" standalone="no"?>
<!DOCTYPE svg PUBLIC "-//W3C//DTD SVG 20010904//EN"
 "http://www.w3.org/TR/2001/REC-SVG-20010904/DTD/svg10.dtd">
<svg version="1.0" xmlns="http://www.w3.org/2000/svg"
 width="523.000000pt" height="96.000000pt" viewBox="0 0 523.000000 96.000000"
 preserveAspectRatio="xMidYMid meet">

<g transform="translate(0.000000,96.000000) scale(0.100000,-0.100000)"
fill="#000000" stroke="none">
<path d="M5007 933 c-14 -4 -16 -8 -6 -19 9 -11 7 -14 -16 -14 -21 0 -26 4
-21 16 5 14 -3 16 -71 12 -48 -2 -78 -8 -81 -16 -5 -15 -32 -16 -32 -1 0 11
-199 6 -315 -7 -22 -3 -69 -5 -104 -4 -42 0 -67 -4 -73 -12 -4 -8 -8 -9 -8 -2
0 8 -30 10 -97 7 -151 -6 -180 -11 -186 -33 -3 -13 -11 -17 -26 -13 -12 3 -21
9 -21 14 0 5 -5 9 -10 9 -7 0 -7 -7 1 -21 9 -18 17 -20 47 -14 21 3 49 15 64
26 15 10 32 19 38 19 14 0 13 -27 -2 -34 -12 -6 129 -2 384 9 61 3 116 10 128
17 17 11 22 11 29 0 7 -11 34 -11 147 -2 86 7 141 15 146 23 6 9 10 9 17 -2 7
-11 29 -13 115 -7 125 8 135 11 129 37 -5 17 -14 19 -82 18 -42 -1 -84 -3 -94
-6z m-417 -53 c0 -5 -7 -10 -15 -10 -8 0 -15 5 -15 10 0 6 7 10 15 10 8 0 15
-4 15 -10z"/>
<path d="M3765 873 c-33 -2 -66 -6 -73 -8 -8 -3 -102 -7 -210 -10 -178 -5
-200 -7 -225 -26 -30 -22 -84 -23 -79 -1 3 19 -93 16 -112 -4 -20 -19 -20 -24
-1 -24 8 0 14 6 13 13 -2 6 4 12 12 12 9 0 15 -9 14 -23 -1 -21 2 -22 60 -17
86 7 209 14 366 21 99 5 137 11 143 21 5 7 13 11 18 7 5 -3 16 0 24 6 16 13
39 4 29 -11 -3 -6 24 -9 69 -8 67 1 76 4 81 22 6 25 -9 37 -44 35 -14 -1 -52
-3 -85 -5z m-452 -58 c1 -5 -6 -11 -15 -13 -11 -2 -18 3 -18 13 0 17 30 18 33
0z"/>
<path d="M2820 823 c-60 -6 -80 -13 -80 -28 0 -24 -18 -27 -39 -6 -24 24 -35
14 -16 -13 16 -21 64 -15 107 15 29 21 44 24 53 9 3 -6 -4 -15 -17 -20 -16 -8
7 -9 82 -5 57 4 105 7 106 8 1 1 5 12 8 25 7 22 6 22 -81 20 -48 0 -104 -3
-123 -5z"/>
<path d="M4871 813 c-7 -14 -12 -15 -24 -4 -38 30 -123 -58 -134 -138 -4 -27
-2 -41 6 -41 6 0 11 -7 11 -16 0 -8 -4 -12 -10 -9 -20 12 -10 -80 13 -125 34
-69 94 -104 185 -109 68 -3 74 -2 79 18 3 12 13 21 24 21 10 0 21 5 24 10 4 6
14 8 24 5 13 -4 24 6 42 37 20 36 24 56 24 128 0 91 -21 155 -63 193 -41 37
-155 63 -149 35 1 -7 -7 -13 -18 -13 -11 0 -19 6 -17 13 3 17 -5 15 -17 -5z
m-71 -48 c0 -8 -7 -15 -15 -15 -16 0 -20 12 -8 23 11 12 23 8 23 -8z m164 1
c18 -7 46 -28 63 -46 26 -28 31 -43 37 -104 8 -85 -5 -119 -62 -166 -32 -27
-42 -30 -77 -24 -52 8 -115 41 -115 59 0 11 -8 13 -32 9 l-33 -5 23 19 c31 28
28 77 -5 77 -7 0 -12 5 -10 10 1 6 7 9 13 9 7 -1 14 14 17 32 10 63 38 105 81
125 50 22 57 23 100 5z m124 -48 c-7 -19 -38 -22 -38 -4 0 10 9 16 21 16 12 0
19 -5 17 -12z"/>
<path d="M2447 803 c-65 -3 -89 -8 -94 -18 -3 -8 -11 -15 -19 -15 -8 0 -14 -4
-14 -10 0 -5 -7 -10 -15 -10 -18 0 -19 11 -2 29 13 15 -75 13 -483 -9 -102 -5
-202 -11 -223 -12 -21 -1 -40 -5 -43 -9 -2 -4 -21 -5 -43 -2 -21 3 -114 0
-207 -6 -93 -7 -223 -14 -289 -17 -66 -2 -192 -9 -280 -14 -88 -5 -214 -12
-280 -15 -234 -11 -285 -16 -285 -30 0 -14 -27 -28 -40 -20 -5 3 -11 1 -15 -5
-4 -6 24 -10 81 -10 86 0 87 0 69 20 -17 18 -17 20 -1 26 11 4 24 0 34 -10 15
-15 15 -18 2 -27 -12 -8 -11 -9 5 -5 11 2 104 8 208 12 176 6 187 8 187 26 0
13 6 18 18 16 9 -2 16 -10 14 -18 -2 -11 21 -12 129 -6 73 3 137 11 144 16 6
5 16 6 21 2 7 -7 211 0 344 12 19 2 68 4 108 5 46 0 71 5 67 11 -3 6 2 10 12
10 11 0 24 5 30 11 16 16 37 1 24 -15 -9 -10 -2 -12 32 -10 70 5 422 23 582
30 113 4 153 9 161 20 6 8 21 14 32 14 11 0 24 5 27 10 5 8 11 8 20 0 9 -8 14
-8 17 0 4 12 58 -9 58 -22 0 -5 16 -8 35 -8 24 0 35 5 35 15 0 8 -4 15 -10 15
-5 0 -9 6 -7 13 2 14 -17 15 -146 10z m-1227 -98 c0 -8 -7 -15 -15 -15 -16 0
-20 12 -8 23 11 12 23 8 23 -8z"/>
<path d="M4506 785 c-20 -30 -36 -32 -36 -5 0 12 -7 20 -16 20 -13 0 -14 -3
-5 -14 9 -11 9 -16 0 -22 -7 -4 -17 0 -23 8 -6 8 -17 13 -24 10 -7 -2 -19 1
-27 8 -9 7 -30 9 -59 5 -40 -6 -46 -10 -46 -31 0 -21 5 -24 39 -24 22 0 41 4
43 9 4 14 26 18 28 6 2 -5 11 -16 21 -23 15 -11 19 -26 19 -80 0 -105 9 -141
31 -135 12 4 19 0 19 -10 0 -8 -9 -17 -20 -20 -16 -4 -19 -12 -16 -61 3 -66
19 -90 39 -61 8 10 19 15 25 11 8 -5 12 2 12 18 0 14 -4 26 -10 26 -12 0 -14
27 -2 32 4 2 6 37 4 79 -4 74 -5 76 -28 71 -16 -3 -24 0 -25 9 -1 8 -2 29 -4
47 -2 20 2 32 10 32 19 0 26 -12 14 -27 -9 -10 -8 -13 0 -13 7 0 10 -4 7 -9
-3 -5 1 -12 10 -15 12 -5 15 -2 10 10 -3 8 -6 26 -6 38 0 15 -6 22 -22 23 -22
2 -40 21 -32 35 3 4 16 1 28 -7 20 -14 24 -14 29 -1 6 15 62 46 84 46 7 0 13
5 13 10 0 6 7 10 15 10 8 0 15 -7 15 -15 0 -8 5 -15 10 -15 16 0 11 37 -6 44
-9 3 -35 6 -59 6 -35 0 -46 -5 -59 -25z m-13 -302 c9 -9 -22 -43 -40 -43 -7 0
-13 7 -13 15 0 8 7 15 15 15 8 0 15 5 15 10 0 11 13 13 23 3z"/>
<path d="M4103 774 c-25 -13 -36 -14 -47 -5 -15 12 -103 4 -123 -11 -7 -5 -22
-7 -35 -3 -23 7 -23 7 -3 -9 11 -8 16 -16 11 -16 -5 0 -3 -6 3 -14 8 -10 9
-16 1 -21 -5 -3 -13 1 -16 10 -12 31 -19 -3 -16 -74 3 -61 6 -70 18 -60 8 6
14 18 14 25 0 17 29 19 32 2 1 -7 4 16 7 52 6 64 6 65 37 68 26 3 31 7 27 23
-4 13 0 19 12 19 12 0 16 -6 12 -19 -4 -18 0 -19 67 -14 91 6 97 8 89 30 -13
37 -40 41 -90 17z"/>
<path d="M3555 764 c-69 -7 -85 -14 -95 -40 -13 -33 7 -78 22 -51 10 18 38 23
38 8 0 -5 -7 -17 -16 -26 -15 -15 -15 -17 2 -30 13 -10 15 -17 8 -22 -6 -5
-13 -16 -17 -26 -9 -24 -30 -11 -22 14 4 11 2 19 -6 19 -8 0 -10 -15 -5 -52 4
-29 9 -75 11 -103 1 -27 6 -58 10 -67 5 -12 2 -18 -6 -19 -8 0 -3 -5 11 -10
38 -15 64 21 55 76 -8 57 1 75 36 75 38 0 109 -36 109 -55 0 -8 13 -24 29 -36
16 -12 27 -27 24 -34 -2 -7 5 -24 17 -37 15 -18 28 -23 50 -20 33 5 38 22 15
46 -8 8 -15 22 -15 31 0 9 -21 38 -47 66 -41 44 -51 50 -82 47 -32 -3 -36 0
-35 20 1 20 -4 22 -52 22 -58 0 -64 7 -64 87 0 53 21 67 102 64 52 -1 59 1 66
20 8 19 10 20 22 7 8 -8 22 -13 31 -11 9 3 19 -3 23 -13 10 -25 -8 -38 -33
-25 -14 8 -21 8 -21 1 0 -5 5 -10 10 -10 16 0 12 -76 -5 -90 -20 -16 -19 -39
1 -47 10 -4 20 1 26 11 5 9 13 14 17 11 5 -2 14 2 21 10 9 10 9 15 1 15 -19 0
-12 17 9 23 38 10 21 91 -27 125 -29 21 -137 34 -218 26z m-25 -300 c0 -9 -5
-14 -12 -12 -18 6 -21 28 -4 28 9 0 16 -7 16 -16z"/>
<path d="M3114 707 c-27 -19 -55 -46 -62 -60 -12 -25 -11 -29 16 -55 l30 -29
13 39 c7 22 23 47 36 55 13 9 23 20 23 27 0 6 4 18 10 26 8 12 11 12 27 -2 10
-8 45 -25 78 -36 52 -18 60 -24 61 -46 1 -35 8 -40 41 -30 25 7 26 8 7 11 -12
2 -25 14 -28 26 -9 34 -7 40 8 34 10 -4 13 -1 9 9 -3 7 -14 14 -24 14 -10 0
-19 7 -19 15 0 22 -42 35 -115 35 -55 0 -69 -4 -111 -33z m-23 -72 c-1 -15
-24 -12 -29 3 -3 9 2 13 12 10 10 -1 17 -7 17 -13z"/>
<path d="M2832 703 c-15 -11 -26 -12 -35 -5 -15 13 -115 14 -122 1 -4 -5 -15
-9 -27 -9 -19 0 -20 -1 -4 -25 9 -13 16 -27 16 -30 0 -11 -29 -5 -33 8 -3 6
-6 -26 -6 -72 -1 -73 1 -82 14 -71 8 7 15 19 15 27 0 10 7 14 20 10 17 -4 20
0 21 31 1 21 1 43 0 50 -3 21 19 42 44 42 13 0 22 6 21 13 0 6 4 12 9 12 6 0
9 -6 9 -12 -1 -9 18 -13 70 -13 85 0 103 8 87 39 -14 26 -65 28 -99 4z"/>
<path d="M2330 691 c-17 -5 -24 -13 -22 -25 3 -15 -1 -17 -21 -12 -58 14 -86
-97 -37 -149 34 -36 94 -53 114 -32 20 20 1 28 -47 20 -34 -5 -60 11 -41 26 5
3 10 20 11 36 1 17 9 44 17 60 9 17 16 35 16 41 0 19 44 33 66 21 17 -9 18 -9
5 6 -14 18 -22 19 -61 8z"/>
<path d="M2445 680 c-4 -6 7 -10 27 -10 25 0 29 3 18 10 -19 13 -37 13 -45 0z"/>
<path d="M50 671 c-24 -4 -31 -9 -22 -14 10 -7 10 -12 1 -23 -9 -11 -7 -14 14
-14 34 0 58 10 51 21 -3 5 2 12 11 15 13 6 14 8 3 15 -7 5 -15 8 -18 8 -3 -1
-21 -4 -40 -8z"/>
<path d="M1915 659 c-20 -17 -26 -28 -22 -48 3 -14 -1 -30 -7 -36 -15 -12
-116 -302 -116 -333 0 -27 35 -48 54 -32 8 6 16 25 20 42 3 18 13 42 21 55 14
21 22 23 111 23 l95 0 15 -35 c21 -52 50 -78 73 -66 11 6 17 19 16 33 -5 44
-156 373 -181 396 -31 27 -44 28 -79 1z m68 -112 c23 -52 57 -142 57 -148 0
-4 -22 -9 -50 -13 -27 -4 -52 -11 -55 -16 -9 -15 -19 -12 -33 10 -10 16 -8 34
9 97 34 123 45 134 72 70z"/>
<path d="M1353 640 c-18 -7 -23 -17 -23 -44 0 -40 12 -52 30 -31 7 8 16 15 21
15 14 0 10 -26 -6 -40 -16 -13 -21 -35 -6 -25 18 11 22 -15 5 -40 -16 -25 -40
-25 -30 1 3 7 0 16 -5 20 -7 4 -8 -9 -4 -37 3 -24 8 -71 10 -104 6 -89 9 -99
24 -109 10 -6 20 -2 34 15 15 19 18 34 14 70 -6 52 4 69 43 69 31 0 106 -42
103 -58 -2 -6 10 -21 25 -32 15 -12 27 -27 27 -33 1 -7 8 -24 18 -38 14 -20
23 -25 47 -21 40 6 45 17 20 42 -11 11 -20 28 -20 38 0 10 -22 39 -48 65 -41
41 -53 47 -83 45 -30 -3 -34 0 -33 20 1 21 -3 23 -48 21 -26 -2 -51 1 -55 5
-15 14 -8 127 7 137 8 5 45 9 83 9 53 0 67 3 67 15 0 8 7 15 15 15 8 0 15 -5
15 -11 0 -6 9 -8 20 -4 14 4 22 1 26 -10 10 -26 -10 -39 -37 -24 -23 12 -23
11 -7 -8 20 -22 14 -91 -8 -100 -17 -6 -18 -29 -3 -38 5 -4 26 1 45 10 28 13
33 19 24 30 -9 11 -7 17 9 27 43 26 20 102 -39 133 -33 17 -238 20 -277 5z
m47 -285 c0 -8 -4 -15 -9 -15 -13 0 -22 16 -14 24 11 11 23 6 23 -9z"/>
<path d="M2511 631 c-9 -6 -7 -10 8 -14 12 -3 21 -1 21 3 0 14 -15 19 -29 11z"/>
<path d="M1076 621 c-4 -5 0 -11 6 -14 7 -2 9 -8 5 -13 -4 -4 -17 -3 -27 4
-11 6 -26 9 -35 6 -8 -3 -15 -1 -15 5 0 13 -79 15 -98 2 -8 -5 -12 -17 -10
-27 4 -25 67 -33 80 -10 11 20 38 21 38 2 0 -8 7 -16 15 -20 11 -4 15 -21 15
-63 0 -99 11 -165 25 -153 9 7 16 6 24 -4 13 -16 -1 -32 -19 -21 -12 7 -12 5
-15 -62 -2 -39 2 -57 15 -68 16 -14 18 -14 23 0 4 8 13 15 22 15 17 0 21 35 5
45 -8 5 -8 11 0 19 6 8 8 41 4 88 -6 65 -9 75 -24 71 -22 -6 -27 2 -35 55 -6
44 -6 45 19 36 11 -4 14 -14 10 -28 -3 -14 1 -27 10 -35 14 -12 16 -9 16 27 0
36 -3 40 -30 46 -18 3 -30 12 -30 21 0 19 14 19 31 -1 11 -13 13 -13 21 0 9
16 64 46 85 46 7 0 13 5 13 10 0 6 7 10 15 10 8 0 15 -7 15 -15 0 -8 5 -15 11
-15 6 0 9 10 7 23 -3 20 -9 22 -64 25 -55 3 -62 1 -67 -18 -3 -11 -13 -20 -22
-20 -12 0 -16 6 -12 20 5 20 -16 29 -27 11z m54 -316 c0 -3 -8 -14 -17 -25
-21 -24 -43 -26 -43 -5 0 8 7 15 15 15 8 0 15 5 15 10 0 6 7 10 15 10 8 0 15
-2 15 -5z"/>
<path d="M549 576 c-8 -17 -8 -78 -1 -217 12 -226 11 -223 107 -215 33 3 95 8
138 12 73 5 77 7 77 30 0 18 -6 24 -22 25 -13 0 -66 1 -118 2 l-95 2 -8 100
c-5 55 -8 130 -8 167 1 37 -4 79 -9 93 -12 32 -47 33 -61 1z"/>
<path d="M2530 591 c0 -5 -8 -12 -17 -14 -14 -4 -12 -5 5 -6 13 -1 22 5 22 14
0 8 -2 15 -5 15 -3 0 -5 -4 -5 -9z"/>
<path d="M4091 591 c-11 -7 -10 -12 5 -29 17 -20 19 -21 37 -4 15 12 21 14 24
5 6 -16 29 -17 39 -1 17 27 -69 51 -105 29z"/>
<path d="M3970 582 c0 -32 14 -42 56 -42 45 0 54 9 30 29 -20 16 -86 26 -86
13z"/>
<path d="M117 573 c-22 -21 6 -65 44 -68 13 -1 19 5 19 21 0 36 -43 68 -63 47z"/>
<path d="M447 531 c3 -13 -1 -21 -14 -24 -15 -4 -14 -5 4 -6 26 -1 36 11 27
33 -9 23 -23 20 -17 -3z"/>
<path d="M3020 524 c0 -22 2 -25 15 -14 12 10 13 16 4 26 -16 20 -19 18 -19
-12z"/>
<path d="M3075 530 c-3 -5 -4 -14 0 -19 3 -5 -6 -18 -20 -29 -32 -25 -32 -38
0 -37 35 2 49 18 39 46 -4 13 -7 30 -6 37 3 14 -4 16 -13 2z"/>
<path d="M3897 533 c-4 -3 -7 -15 -7 -25 0 -24 26 -23 58 3 25 20 26 21 4 14
-13 -3 -29 -2 -36 4 -7 6 -16 8 -19 4z"/>
<path d="M2714 518 c-3 -5 -1 -15 5 -22 6 -7 8 -16 4 -19 -9 -10 60 -8 75 1
10 7 8 12 -5 24 -22 19 -71 29 -79 16z"/>
<path d="M2820 519 c0 -14 25 -39 39 -39 6 0 11 5 11 10 0 6 7 10 15 10 8 0
15 -4 15 -10 0 -13 27 -13 35 0 4 6 1 17 -5 25 -15 18 -110 21 -110 4z"/>
<path d="M108 464 c4 -29 8 -35 26 -33 35 2 39 0 26 -16 -7 -8 -21 -15 -31
-15 -23 0 -25 -16 -4 -24 20 -7 19 -36 -1 -36 -27 0 -10 -80 22 -106 25 -21
25 -22 8 -33 -21 -12 -14 -14 33 -11 42 2 73 -8 73 -23 0 -9 -14 -11 -42 -9
-33 3 -40 1 -32 -8 21 -21 83 -28 157 -18 89 14 119 40 136 116 16 75 15 103
-4 96 -9 -4 -15 0 -15 10 0 9 7 16 16 16 11 0 14 6 8 23 -4 12 -7 32 -6 45 1
13 -2 21 -7 17 -6 -3 -13 0 -18 7 -4 7 -18 13 -31 14 -21 1 -22 -2 -16 -30 9
-37 7 -168 -3 -211 -4 -16 -7 -37 -7 -45 -1 -12 -13 -14 -60 -12 -71 3 -122
23 -131 51 -3 12 -9 21 -13 21 -4 0 -8 37 -9 83 0 45 -2 92 -2 104 -1 14 -11
24 -31 32 -16 5 -30 15 -30 20 0 6 -4 11 -8 11 -4 0 -6 -16 -4 -36z"/>
<path d="M2422 484 c-32 -22 -27 -41 13 -48 41 -8 78 -50 69 -80 -10 -38 -52
-66 -95 -66 -53 0 -74 12 -105 61 -19 30 -31 39 -47 37 -19 -3 -22 -9 -20 -42
3 -42 23 -70 63 -91 65 -32 163 -26 168 12 3 23 31 35 54 22 44 -24 72 118 32
162 -11 13 -20 16 -24 9 -8 -13 -78 -21 -85 -10 -3 4 2 13 10 20 34 29 6 41
-33 14z"/>
<path d="M2640 470 c-23 -23 -14 -52 13 -44 29 9 34 14 20 22 -6 4 -12 14 -14
22 -4 14 -6 14 -19 0z"/>
<path d="M3921 465 l-33 -10 4 -57 c2 -32 7 -61 11 -64 4 -4 37 -6 74 -4 38 2
92 3 121 2 40 -1 52 2 52 13 0 19 10 19 24 1 15 -19 56 -3 56 23 0 26 -38 32
-138 19 -106 -14 -130 -5 -134 49 l-3 38 -34 -10z m19 -40 c0 -16 -27 -32 -37
-22 -3 4 -3 13 0 22 8 20 37 20 37 0z m42 -77 c-15 -15 -26 -4 -18 18 5 13 9
15 18 6 9 -9 9 -15 0 -24z"/>
<path d="M3390 446 c0 -9 -11 -22 -25 -28 -33 -15 -31 -24 7 -32 36 -7 50 6
46 43 -3 27 -28 42 -28 17z"/>
<path d="M3088 416 c-15 -11 -15 -13 0 -24 15 -10 15 -12 -5 -18 -56 -16 39
-84 127 -90 30 -2 47 -1 38 2 -10 3 -18 9 -18 13 0 4 -6 16 -14 26 -11 15 -17
17 -28 8 -8 -7 -24 -10 -36 -6 -24 6 -30 28 -9 36 7 3 5 6 -5 6 -10 1 -18 9
-18 19 0 30 -13 42 -32 28z"/>
<path d="M2661 403 l-33 -4 4 -60 c2 -33 9 -64 15 -70 14 -14 246 -2 238 11
-10 17 18 23 30 7 16 -23 42 -21 55 3 17 31 -20 44 -99 35 -74 -7 -150 -7
-164 2 -5 3 -7 23 -5 44 2 22 1 38 -2 37 -3 0 -20 -3 -39 -5z m19 -47 c0 -8
-5 -18 -11 -22 -14 -8 -33 11 -25 25 10 16 36 13 36 -3z m48 -63 c-5 -25 -28
-28 -28 -4 0 12 6 21 16 21 9 0 14 -7 12 -17z"/>
<path d="M3320 365 c0 -10 29 -24 34 -17 3 6 -3 12 -14 15 -11 3 -20 4 -20 2z"/>
<path d="M3252 321 c13 -21 28 -19 28 5 0 8 -9 14 -20 14 -17 0 -19 -3 -8 -19z"/>
<path d="M3481 324 c0 -11 3 -14 6 -6 3 7 2 16 -1 19 -3 4 -6 -2 -5 -13z"/>
<path d="M5115 329 c-94 -9 -91 -9 -175 -9 -171 -1 -456 -22 -477 -36 -19 -12
-26 -12 -43 -2 -18 11 -23 10 -31 -5 -6 -9 -15 -15 -20 -12 -5 4 -7 11 -4 16
4 5 -22 9 -62 8 -69 -1 -200 -15 -173 -18 12 -1 11 -5 -4 -16 -23 -17 -42 -9
-26 11 10 11 0 13 -61 10 -56 -3 -76 -8 -87 -23 -12 -16 -15 -16 -25 -2 -16
20 -80 23 -208 9 -101 -11 -127 -18 -101 -27 6 -3 12 -11 12 -20 0 -11 7 -13
28 -9 15 3 91 8 169 12 79 3 141 10 138 14 -10 17 16 21 44 7 20 -10 42 -12
77 -7 27 4 54 6 60 3 5 -2 19 5 29 17 23 25 32 25 40 0 6 -19 12 -20 73 -14
37 3 76 10 87 15 11 6 30 6 42 2 21 -8 356 2 419 12 18 3 31 11 30 18 0 6 4
13 9 15 6 1 10 -4 10 -10 0 -10 37 -12 160 -10 88 2 163 7 167 11 8 7 -1 52
-11 49 -3 -1 -42 -5 -86 -9z"/>
<path d="M3300 310 c-11 -21 -4 -25 24 -14 9 3 16 12 16 20 0 21 -28 17 -40
-6z"/>
<path d="M3505 310 c4 -6 11 -8 16 -5 14 9 11 15 -7 15 -8 0 -12 -5 -9 -10z"/>
<path d="M3327 240 c-110 -6 -129 -9 -141 -26 -13 -16 -15 -17 -21 -3 -4 12
-20 15 -73 13 -37 -1 -105 -2 -151 -3 -69 -1 -81 -3 -72 -14 13 -16 5 -27 -20
-27 -12 0 -16 5 -13 14 4 11 -7 14 -53 14 -70 0 -96 -6 -87 -20 5 -8 0 -9 -17
-3 -13 4 -60 10 -103 12 -68 4 -78 3 -68 -10 7 -7 9 -17 5 -20 -12 -13 -23 -7
-23 11 0 16 -16 16 -362 0 -386 -18 -625 -35 -641 -45 -5 -3 -2 -10 7 -15 9
-5 14 -13 11 -19 -8 -12 0 -11 380 16 22 1 119 5 215 8 96 3 240 11 320 16 80
6 175 12 212 12 44 1 68 6 72 14 5 15 56 17 56 2 0 -16 143 0 156 18 15 20 31
19 36 -3 5 -16 14 -17 124 -9 65 4 120 12 122 17 2 6 31 7 71 4 64 -6 68 -5
74 16 3 13 10 19 17 15 6 -4 9 -13 6 -21 -4 -11 8 -14 62 -13 81 1 105 9 107
37 1 19 -3 21 -39 19 -23 -1 -98 -4 -169 -7z"/>
<path d="M3585 230 c-3 -5 -1 -10 4 -10 6 0 11 5 11 10 0 6 -2 10 -4 10 -3 0
-8 -4 -11 -10z"/>
<path d="M1351 214 c0 -11 3 -14 6 -6 3 7 2 16 -1 19 -3 4 -6 -2 -5 -13z"/>
<path d="M1380 199 c0 -5 5 -7 10 -4 6 3 10 8 10 11 0 2 -4 4 -10 4 -5 0 -10
-5 -10 -11z"/>
<path d="M1252 130 c-78 -4 -143 -13 -158 -20 -19 -11 -27 -11 -36 -2 -16 16
-35 15 -35 -1 0 -15 17 -31 37 -35 8 -2 83 -1 166 3 142 7 151 8 147 26 -7 24
13 25 26 2 7 -14 9 -12 8 10 -1 15 -6 26 -12 25 -5 0 -70 -4 -143 -8z"/>
<path d="M780 105 c-107 -7 -226 -13 -264 -14 -55 -1 -67 -4 -58 -13 7 -7 12
-19 12 -28 0 -14 23 -14 238 -3 297 16 300 16 298 48 0 16 -7 24 -16 23 -8 0
-103 -7 -210 -13z"/>
<path d="M1461 104 c0 -11 3 -14 6 -6 3 7 2 16 -1 19 -3 4 -6 -2 -5 -13z"/>
<path d="M228 75 c-2 -3 -44 -6 -91 -7 l-87 -2 0 -29 c0 -15 4 -26 8 -23 5 3
77 7 161 10 83 3 156 8 161 11 6 3 15 15 20 26 10 18 7 19 -78 19 -49 0 -91
-2 -94 -5z"/>
</g>
</svg>
